<?xml version="1.0" encoding="iso-8859-1"?>
<!-- Generator: Adobe Illustrator 19.0.0, SVG Export Plug-In . SVG Version: 6.00 Build 0)  -->
<svg xmlns="http://www.w3.org/2000/svg" xmlns:xlink="http://www.w3.org/1999/xlink" version="1.1" id="Capa_1" x="0px" y="0px" viewBox="0 0 487.978 487.978" style="enable-background:new 0 0 487.978 487.978;" xml:space="preserve" width="512px" height="512px">
<g>
	<g>
		<path d="M356.389,329.338l-14.08-2.48c-5.393-0.427-9.723-4.623-10.32-10c0.987-6.34,6.73-10.823,13.12-10.24h5.76    c6.39-0.583,12.133,3.9,13.12,10.24v2.56h16v-2.56c-0.861-15.256-13.857-26.967-29.12-26.24h-5.76    c-15.263-0.727-28.259,10.984-29.12,26.24c0.581,13.318,10.756,24.239,24,25.76l13.68,2.48c5.393,0.427,9.723,4.623,10.32,10    c-0.987,6.34-6.73,10.823-13.12,10.24h-5.76c-6.39,0.583-12.133-3.9-13.12-10.24v-2.56h-16v2.56    c0.861,15.256,13.857,26.967,29.12,26.24h5.76c0.059,0.004,0.118,0.007,0.176,0.01c15.352,0.854,28.489-10.898,29.344-26.25    C379.807,341.779,369.633,330.859,356.389,329.338z" fill="#FFFFFF"/>
	</g>
</g>
<g>
	<g>
		<rect x="339.99" y="279.979" width="16" height="18.64" fill="#FFFFFF"/>
	</g>
</g>
<g>
	<g>
		<rect x="339.99" y="373.339" width="16" height="18.64" fill="#FFFFFF"/>
	</g>
</g>
<g>
	<g>
		<path d="M443.133,4.401c-1.988-3.946-6.799-5.532-10.744-3.544l-188.4,94.16l-188.4-94.16c-1.109-0.559-2.334-0.852-3.576-0.856    c-4.418-0.013-8.011,3.557-8.024,7.976v376c0.009,3.012,1.71,5.764,4.4,7.12l192,96c1.115,0.571,2.348,0.872,3.6,0.88    c1.252-0.008,2.485-0.309,3.6-0.88l192-96c2.69-1.356,4.391-4.108,4.4-7.12v-376C443.985,6.735,443.692,5.511,443.133,4.401z     M427.989,379.018l-184,92l-184-92V20.938l180.4,90.16c2.264,1.141,4.936,1.141,7.2,0l180.4-90.16V379.018z" fill="#FFFFFF"/>
	</g>
</g>
<g>
	<g>
		<path d="M481.029,33.658c-1.85-1.527-4.287-2.144-6.64-1.68l-40,8l3.2,16l30.4-6.24v383.6l-224,38.64l-224-38.72V49.737l30.4,6.24    l3.2-16l-40-8c-2.378-0.42-4.818,0.256-6.64,1.84c-1.858,1.507-2.944,3.767-2.96,6.16v400c-0.057,3.937,2.759,7.331,6.64,8l232,40    h1.36h1.36l232-40c3.881-0.669,6.697-4.063,6.64-8v-400C484.021,37.529,482.931,35.2,481.029,33.658z" fill="#FFFFFF"/>
	</g>
</g>
<g>
	<g>
		<rect x="235.99" y="191.979" width="16" height="184" fill="#FFFFFF"/>
	</g>
</g>
<g>
	<g>
		<rect x="235.99" y="103.979" width="16" height="58.64" fill="#FFFFFF"/>
	</g>
</g>
<g>
	<g>
		<rect x="235.99" y="407.979" width="16" height="72" fill="#FFFFFF"/>
	</g>
</g>
<g>
</g>
<g>
</g>
<g>
</g>
<g>
</g>
<g>
</g>
<g>
</g>
<g>
</g>
<g>
</g>
<g>
</g>
<g>
</g>
<g>
</g>
<g>
</g>
<g>
</g>
<g>
</g>
<g>
</g>
</svg>
